<?xml version="1.0" encoding="UTF-8"?>
<svg width="1024px" height="1024px" viewBox="0 0 1024 1024" version="1.1" xmlns="http://www.w3.org/2000/svg" xmlns:xlink="http://www.w3.org/1999/xlink">
    <title>f_logo_RGB-Blue_1024</title>
    <defs>
        <polygon id="path-1" points="5.68434189e-14 0 1023.94 0 1023.94 1017.74 5.68434189e-14 1017.74"></polygon>
    </defs>
    <g id="f_logo_RGB-Blue_1024" stroke="none" stroke-width="1" fill="none" fill-rule="evenodd">
        <g id="Group-3" transform="translate(0.060000, 0.040000)">
            <mask id="mask-2" fill="white">
                <use xlink:href="#path-1"></use>
            </mask>
            <g id="Clip-2"></g>
            <path d="M1023.94,511.96 C1023.94,229.19 794.71,-0.04 511.94,-0.04 C229.17,-0.04 -0.06,229.19 -0.06,511.96 C-0.06,767.514 187.171,979.33 431.94,1017.74 L431.94,659.96 L301.94,659.96 L301.94,511.96 L431.94,511.96 L431.94,399.16 C431.94,270.84 508.378,199.96 625.33,199.96 C681.347,199.96 739.94,209.96 739.94,209.96 L739.94,335.96 L675.378,335.96 C611.775,335.96 591.94,375.427 591.94,415.917 L591.94,511.96 L733.94,511.96 L711.24,659.96 L591.94,659.96 L591.94,1017.74 C836.709,979.33 1023.94,767.514 1023.94,511.96" id="Fill-1" fill="#1877F2" mask="url(#mask-2)"></path>
        </g>
        <path d="M711.3,660 L734,512 L592,512 L592,415.957 C592,375.467 611.835,336 675.438,336 L740,336 L740,210 C740,210 681.407,200 625.39,200 C508.438,200 432,270.88 432,399.2 L432,512 L302,512 L302,660 L432,660 L432,1017.78 C458.067,1021.87 484.784,1024 512,1024 C539.216,1024 565.933,1021.87 592,1017.78 L592,660 L711.3,660" id="Fill-4" fill="#FFFFFF"></path>
    </g>
</svg>