<?xml version="1.0" encoding="UTF-8"?>
<svg width="147px" height="146px" viewBox="0 0 147 146" version="1.1" xmlns="http://www.w3.org/2000/svg" xmlns:xlink="http://www.w3.org/1999/xlink">
    <title>reddit_logo_horizontal_on_orangered</title>
    <g id="Page-1" stroke="none" stroke-width="1" fill="none" fill-rule="evenodd">
        <g id="reddit_logo_horizontal_on_orangered" transform="translate(-29.881733, -30.236362)" fill-rule="nonzero">
            <circle id="Oval" fill="#FF4500" transform="translate(103.237590, 103.237590) rotate(-45.000000) translate(-103.237590, -103.237590) " cx="103.23759" cy="103.23759" r="73"></circle>
            <path d="M147.881733,103.236362 C147.867931,99.3237728 145.521229,95.7967559 141.91769,94.2726003 C138.31415,92.7484447 134.14884,93.521136 131.331733,96.2363621 C124.651733,91.4163621 115.451733,88.3063621 105.201733,87.9463621 L109.651733,67.0063621 L124.201733,70.0963621 C124.364456,73.6192339 127.12247,76.4709464 130.637943,76.75123 C134.153415,77.0315136 137.328441,74.652834 138.047308,71.20025 C138.766174,67.747666 136.804374,64.2994421 133.469175,63.1533395 C130.133976,62.0072369 126.466981,63.521191 124.911733,66.6863621 L108.691733,63.2363621 C108.240536,63.138343 107.768877,63.2247537 107.381733,63.4763621 C106.993568,63.7287835 106.72051,64.1239997 106.621733,64.5763621 L101.621733,87.9463621 C91.2517331,88.2363621 81.8817331,91.3163621 75.1417331,96.2363621 C72.3183897,93.6140451 68.2164651,92.8983265 64.6718874,94.4095455 C61.1273097,95.9207646 58.80366,99.3760057 58.7409512,103.228782 C58.6782423,107.081557 60.888214,110.610589 64.3817331,112.236362 C64.2273983,113.228886 64.1504997,114.231911 64.1517331,115.236362 C64.1517331,130.236362 81.6517331,142.456362 103.231733,142.456362 C124.811733,142.456362 142.321733,130.266362 142.321733,115.236362 C142.320512,114.251916 142.243619,113.269021 142.091733,112.296362 C145.659403,110.705431 147.936505,107.142298 147.881733,103.236362 Z M80.8817331,110.236362 C80.8817331,106.370369 84.0157398,103.236362 87.8817331,103.236362 C91.7477263,103.236362 94.8817331,106.370369 94.8817331,110.236362 C94.8817331,114.102355 91.7477263,117.236362 87.8817331,117.236362 C84.0157398,117.236362 80.8817331,114.102355 80.8817331,110.236362 L80.8817331,110.236362 Z M119.881733,128.666362 C115.111733,133.416362 105.991733,133.786362 103.301733,133.786362 C100.611733,133.786362 91.4917331,133.416362 86.7317331,128.666362 C86.0248086,127.959438 86.0248086,126.813287 86.7317331,126.106362 C87.4386575,125.399438 88.5848086,125.399438 89.2917331,126.106362 C92.2917331,129.106362 98.7117331,130.176362 103.291733,130.176362 C107.871733,130.176362 114.291733,129.106362 117.291733,126.106362 C117.998658,125.391153 119.151524,125.384438 119.866733,126.091362 C120.581942,126.798287 120.588657,127.951153 119.881733,128.666362 L119.881733,128.666362 Z M118.601733,117.236362 C114.73574,117.236362 111.601733,114.102355 111.601733,110.236362 C111.601733,106.370369 114.73574,103.236362 118.601733,103.236362 C122.467726,103.236362 125.601733,106.370369 125.601733,110.236362 C125.601733,112.092877 124.864235,113.873355 123.551481,115.18611 C122.238726,116.498864 120.458248,117.236362 118.601733,117.236362 L118.601733,117.236362 Z" id="Shape" fill="#FFFFFF"></path>
        </g>
    </g>
</svg>