<?xml version="1.0" encoding="UTF-8"?>
<svg width="233px" height="233px" viewBox="0 0 233 233" version="1.1" xmlns="http://www.w3.org/2000/svg" xmlns:xlink="http://www.w3.org/1999/xlink">
    <title>steam-logo</title>
    <g id="Page-1" stroke="none" stroke-width="1" fill="none" fill-rule="evenodd">
        <g id="steam-logo" transform="translate(0.251100, 0.000000)" fill="#FEFEFE" fill-rule="nonzero">
            <path d="M0.0501677232,108.842638 L0,108.76 C3.99,48.029 54.509,0 116.25,0 C180.59,0 232.75,52.159 232.75,116.5 C232.75,180.84 180.59,233 116.25,233 C63.556,233 19.033,198.02 4.64,150.01 L4.783,150.48 L48.8929,168.68 C51.1149,178.61 57.9269,187.32 67.9769,191.51 C84.4199,198.38 103.3789,190.55 110.2189,174.1 C111.9989,169.8 112.8289,165.29 112.7089,160.79 L153.4989,131.64 C153.8289,131.65 154.1689,131.66 154.4989,131.66 C178.9089,131.66 198.7489,111.76 198.7489,87.322 C198.7489,62.882 178.9089,43 154.4989,43 C130.0989,43 110.2489,62.882 110.2489,87.322 C110.2489,87.518 110.2489,87.714 110.2589,87.898 L81.7509,129.31 C77.1329,129.1 72.4989,129.91 68.1049,131.72 C66.1679,132.51 64.3529,133.48 62.6499,134.6 L0.0509,108.83 L0.0501677232,108.842638 L0.0501677232,108.842638 Z M89.9919,138.6 C96.1449,141.16 100.9189,145.98 103.4489,152.14 C105.9789,158.3 105.9689,165.1 103.4089,171.24 L103.4089,171.24 C98.1149,183.95 83.5089,189.98 70.8129,184.69 C64.9559,182.25 60.5339,177.78 57.9829,172.45 L72.3879,178.42 C81.7509,182.32 92.4929,177.88 96.3849,168.52 C100.2889,159.15 95.8599,148.39 86.5019,144.49 L71.6109,138.32 C77.3569,136.14 83.8889,136.06 89.9919,138.6 Z M154.4989,57.793 C170.7589,57.793 183.9889,71.047 183.9889,87.322 C183.9889,103.61 170.7589,116.86 154.4989,116.86 C138.2489,116.86 125.0189,103.61 125.0189,87.322 C125.0189,71.047 138.2489,57.793 154.4989,57.793 Z M154.5489,65.086 C142.3289,65.086 132.4089,75.024 132.4089,87.277 C132.4089,99.531 142.3289,109.46 154.5489,109.46 C166.7789,109.46 176.6989,99.531 176.6989,87.277 C176.6989,75.024 166.7789,65.086 154.5489,65.086 Z" id="Combined-Shape"></path>
        </g>
    </g>
</svg>