<?xml version="1.0" encoding="UTF-8"?>
<svg width="752px" height="877px" viewBox="0 0 752 877" version="1.1" xmlns="http://www.w3.org/2000/svg" xmlns:xlink="http://www.w3.org/1999/xlink">
    <title>tik-tok-seeklogo.com</title>
    <defs>
        <polygon id="path-1" points="0.06 0.123 751.332 0.123 751.332 876.94 0.06 876.94"></polygon>
    </defs>
    <g id="tik-tok-seeklogo.com" stroke="none" stroke-width="1" fill="none" fill-rule="evenodd">
        <mask id="mask-2" fill="white">
            <use xlink:href="#path-1"></use>
        </mask>
        <g id="Clip-2"></g>
        <path d="M519.355,0.123 C519.313,11.847 520.838,24.437 522.755,35.932 L411.712,35.932 L411.712,588.801 C411.712,614.286 409.097,636.983 403.869,656.892 C358.65,756.563 230.617,743.538 195.239,675.144 C247.913,708.122 334.521,699.366 370.064,621.083 C375.249,601.217 377.862,578.477 377.862,552.992 L377.862,0.123 L519.355,0.123 Z M594.895,167.32 C623.517,190.191 662.985,207.056 717.396,210.279 L717.396,242.042 C657.191,230.922 619.029,201 594.895,167.32 Z M86.82,774.556 C-94.359,617.336 22.815,267.298 301.365,311.339 L301.365,343.757 C66.123,332.816 -37.428,613.415 86.82,774.556 L86.82,774.556 Z" id="Fill-1" fill="#5EBFC0" mask="url(#mask-2)"></path>
        <path d="M553.206,35.932 L553.206,36.64 C553.248,49.443 556.996,234.542 751.244,246.088 C751.244,418.288 751.332,246.088 751.332,389.106 C736.738,389.971 623.474,381.787 552.987,318.92 L552.77,597.34 C554.513,723.413 484.332,847.045 352.944,871.963 C316.132,878.934 282.987,879.719 227.346,867.563 C-93.189,771.682 13.323,296.272 335.17,347.149 C335.17,500.63 335.258,347.106 335.258,500.63 C202.301,481.069 157.823,591.676 193.153,670.874 C225.308,742.974 357.692,758.611 403.869,656.892 C409.097,636.983 411.712,614.286 411.712,588.801 L411.712,35.932 L553.206,35.932" id="Fill-3" fill="#000105" mask="url(#mask-2)"></path>
        <path d="M553.206,35.932 L553.206,36.64 C553.206,44.166 554.556,111.002 594.895,167.32 C546.278,128.422 528.94,72.226 522.755,35.932 L553.206,35.932 Z M717.396,242.042 C727.981,243.991 739.265,245.385 751.244,246.088 C751.244,418.288 751.332,246.088 751.332,389.106 C736.738,389.971 623.474,381.787 552.987,318.92 L552.77,597.34 C554.513,723.413 484.332,847.045 352.944,871.963 C316.132,878.934 282.987,879.719 227.346,867.563 C164.706,848.831 118.447,815.55 86.82,774.556 C115,799.038 150.373,818.86 193.546,831.799 C249.126,843.909 282.284,843.124 319.094,836.153 C450.483,811.235 520.663,687.604 518.964,561.575 L519.14,283.111 C589.624,345.978 702.889,354.207 717.527,353.291 C717.527,220.473 717.396,359.483 717.396,242.042 Z M301.365,343.757 C312.338,344.237 323.626,345.32 335.17,347.149 C335.17,500.63 335.258,347.106 335.258,500.63 C202.301,481.069 157.823,591.676 193.153,670.874 C193.802,672.313 194.504,673.751 195.239,675.144 C179.426,665.255 166.71,651.663 159.311,635.065 C124.023,555.866 168.453,445.261 301.408,464.82 C301.408,324.153 301.365,441.207 301.365,343.757 L301.365,343.757 Z" id="Fill-4" fill="#DA2F56" mask="url(#mask-2)"></path>
    </g>
</svg>