<?xml version="1.0" encoding="UTF-8"?>
<svg width="176px" height="124px" viewBox="0 0 176 124" version="1.1" xmlns="http://www.w3.org/2000/svg" xmlns:xlink="http://www.w3.org/1999/xlink">
    <title>yt_icon_rgb</title>
    <defs>
        <polygon id="path-1" points="0 0 175.94 0 175.94 123.96 0 123.96"></polygon>
    </defs>
    <g id="yt_icon_rgb" stroke="none" stroke-width="1" fill="none" fill-rule="evenodd">
        <g id="Group-3" transform="translate(0.060000, 0.040000)">
            <mask id="mask-2" fill="white">
                <use xlink:href="#path-1"></use>
            </mask>
            <g id="Clip-2"></g>
            <path d="M172.262,19.323 C170.238,11.701 164.275,5.699 156.702,3.662 C142.977,-0.04 87.94,-0.04 87.94,-0.04 C87.94,-0.04 32.903,-0.04 19.178,3.662 C11.606,5.699 5.642,11.701 3.618,19.323 C-0.06,33.137 -0.06,61.96 -0.06,61.96 C-0.06,61.96 -0.06,90.782 3.618,104.598 C5.642,112.219 11.606,118.221 19.178,120.259 C32.903,123.96 87.94,123.96 87.94,123.96 C87.94,123.96 142.977,123.96 156.702,120.259 C164.275,118.221 170.238,112.219 172.262,104.598 C175.94,90.782 175.94,61.96 175.94,61.96 C175.94,61.96 175.94,33.137 172.262,19.323" id="Fill-1" fill="#D9252A" mask="url(#mask-2)"></path>
        </g>
        <polyline id="Fill-4" fill="#FFFFFE" points="70 88.169 116 62.001 70 35.831 70 88.169"></polyline>
    </g>
</svg>