<?xml version="1.0" encoding="UTF-8"?>
<svg width="648px" height="751px" viewBox="0 0 648 751" version="1.1" xmlns="http://www.w3.org/2000/svg" xmlns:xlink="http://www.w3.org/1999/xlink">
    <title>Epic_Games_logo</title>
    <defs>
        <polygon id="path-1" points="0 1054.51864 1199.99997 1054.51864 1199.99997 0 0 0"></polygon>
    </defs>
    <g id="Page-1" stroke="none" stroke-width="1" fill="none" fill-rule="evenodd">
        <g id="Epic_Games_logo" transform="translate(-278.051730, -151.935520)">
            <g id="g16-Clipped" transform="translate(599.999985, 527.259320) scale(-1, 1) rotate(-180.000000) translate(-599.999985, -527.259320) translate(0.000000, 0.000000)">
                <mask id="mask-2" fill="white">
                    <use xlink:href="#path-1"></use>
                </mask>
                <g id="path18"></g>
                <g id="g16" mask="url(#mask-2)">
                    <g transform="translate(278.051726, 151.606114)" id="g26">
                        <path d="M352.655991,8.44148203 L613.449318,117.705479 C618.850651,119.878813 622.118651,121.608146 626.907984,123.956146 C626.907984,123.956146 629.295108,125.732544 631.715116,127.586227 L632.215504,127.970294 C634.295975,129.57052 636.280222,131.141098 636.659984,131.593479 C644.037317,140.344966 645.304031,148.195277 646.111272,156.08304 L646.197784,156.943717 C646.283016,157.804632 646.365226,158.6664 646.45175,159.530238 L646.539984,160.394812 C646.969317,164.577478 647.16665,169.092145 647.16665,173.952145 L647.16665,692.186798 C647.16665,735.134797 631.322651,750.977463 588.395985,750.977463 L58.7706652,750.977463 C15.8426663,750.977463 0,735.134797 0,692.186798 L0,173.952145 C0,169.092145 0.195999995,164.577478 0.625333318,160.394812 L0.713567176,159.530238 C1.62206986,150.459938 2.05493328,141.617909 10.5053331,131.593479 C11.357333,130.580146 20.2586662,123.956146 20.2586662,123.956146 C25.046666,121.608146 28.3159993,119.878813 33.7159992,117.705479 L294.510659,8.44148203 C308.049326,2.23481551 313.710659,-0.183851092 323.543992,0.0108155697 L323.543992,0.00948223643 L323.621325,0.00948223643 L323.621325,0.0108155697 C333.454658,-0.183851092 339.115992,2.23481551 352.655991,8.44148203 Z M498.476121,360.77694 L476.777455,360.77694 C441.169456,360.77694 423.561456,378.460939 423.561456,414.251605 L423.561456,414.251605 L423.561456,600.174267 C423.561456,635.9636 441.169456,653.648933 476.777455,653.648933 L476.777455,653.648933 L498.069454,653.648933 C533.67612,653.648933 550.869453,636.3716 550.869453,600.588934 L550.869453,600.588934 L550.869453,541.762269 L507.892121,541.762269 L507.892121,598.120934 C507.892121,609.638267 502.568121,614.982267 491.514788,614.982267 L491.514788,614.982267 L484.145455,614.982267 C472.685455,614.982267 467.361455,609.638267 467.361455,598.120934 L467.361455,598.120934 L467.361455,416.304938 C467.361455,404.786272 472.685455,399.442272 484.145455,399.442272 L484.145455,399.442272 L492.337454,399.442272 C503.384121,399.442272 508.708121,404.786272 508.708121,416.304938 L508.708121,416.304938 L508.708121,481.296937 L551.690786,481.296937 L551.690786,414.251605 C551.690786,378.460939 534.09212,360.77694 498.476121,360.77694 L498.476121,360.77694 Z M400.41359,363.24454 L356.608258,363.24454 L356.608258,651.180533 L400.41359,651.180533 L400.41359,363.24454 Z M258.665194,363.244673 L214.865195,363.244673 L214.865195,651.180666 L283.634526,651.180666 C319.249192,651.180666 336.849192,633.495333 336.849192,597.706001 L336.849192,597.706001 L336.849192,521.194003 C336.849192,485.411337 319.249192,467.727337 283.634526,467.727337 L283.634526,467.727337 L258.665194,467.727337 L258.665194,363.244673 Z M193.721062,363.245073 L95.4757309,363.245073 L95.4757309,651.179733 L192.905062,651.179733 L192.905062,611.283734 L139.274397,611.283734 L139.274397,529.835736 L190.851729,529.835736 L190.851729,489.939737 L139.274397,489.939737 L139.274397,403.142405 L193.721062,403.142405 L193.721062,363.245073 Z M276.67986,506.386003 C287.733193,506.386003 293.049193,511.736669 293.049193,523.255336 L293.049193,523.255336 L293.049193,595.652667 C293.049193,607.168667 287.733193,612.514 276.67986,612.514 L276.67986,612.514 L258.665194,612.514 L258.665194,506.386003 Z M143.508663,204.38721 L138.388663,204.38721 L137.200663,204.505877 L135.892663,204.625877 L134.704663,204.744544 L133.516663,204.864544 L132.320663,204.984544 L131.132663,205.22321 L129.94333,205.46321 L128.87533,205.701877 L127.680663,205.940544 L126.61133,206.29921 L125.42333,206.537877 L124.34733,206.897877 L123.277997,207.37521 L122.208664,207.733877 L121.021997,208.212544 L119.945997,208.689877 L118.876664,209.16721 L117.808664,209.645877 L116.73133,210.24321 L115.78333,210.83521 L114.713997,211.432544 L113.757997,212.03121 L112.808664,212.62721 L111.852664,213.345877 L110.903331,214.061877 L109.952664,214.77921 L109.116664,215.496544 L108.287331,216.213877 L107.449997,217.05121 L106.620664,217.76721 L105.783331,218.604543 L104.953997,219.441877 L104.236664,220.277877 L103.525997,221.233877 L102.808664,222.07121 L102.211331,223.02721 L101.500664,223.984543 L100.904664,224.93921 L100.312664,225.896543 L99.7153308,226.972543 L99.1179975,227.928543 L98.6473309,229.004543 L98.1686642,230.080543 L97.6913309,231.156543 L97.2193309,232.23121 L96.8606642,233.18721 L96.3819976,234.264543 L96.1433309,235.340543 L95.7913309,236.41521 L95.5526643,237.609876 L95.1939976,238.68721 L94.955331,239.881876 L94.835331,240.957876 L94.595331,242.153876 L94.4779976,243.228543 L94.3566643,244.424543 L94.2446643,245.620543 L94.1259976,246.815209 L94.1259976,250.760543 L94.2446643,252.075209 L94.2446643,253.269876 L94.3566643,254.465876 L94.4779976,255.780543 L94.7166643,256.968542 L94.835331,258.164542 L95.0739976,259.240542 L95.4326643,260.435209 L95.6726643,261.631209 L96.0233309,262.707209 L96.3819976,263.901876 L96.7406642,264.977876 L97.2193309,266.173876 L97.6913309,267.248542 L98.1686642,268.324542 L98.6473309,269.400542 L99.1179975,270.476542 L99.7153308,271.552542 L100.312664,272.508542 L100.904664,273.465875 L101.500664,274.421875 L102.099331,275.377875 L102.808664,276.333875 L103.525997,277.289875 L104.236664,278.245875 L104.953997,279.084542 L105.783331,279.920542 L106.500664,280.757875 L107.331331,281.592542 L108.167331,282.431209 L108.996664,283.147208 L109.952664,283.984542 L110.783331,284.701875 L111.732664,285.419208 L112.688664,286.016542 L113.637997,286.733875 L114.59533,287.331208 L115.54333,287.928542 L116.612664,288.527208 L117.688664,289.124542 L118.756664,289.721875 L119.825997,290.200542 L120.900664,290.677875 L122.089997,291.276542 L123.03933,291.633875 L124.22733,291.993875 L125.304664,292.471208 L126.372664,292.711208 L127.440663,293.069875 L128.63533,293.308542 L129.704663,293.667208 L130.892663,293.905875 L132.081997,294.025875 L133.276663,294.264542 L134.465997,294.384542 L135.652663,294.503208 L136.841997,294.623208 L138.037997,294.743208 L143.148663,294.743208 L144.464663,294.623208 L145.772663,294.503208 L146.960663,294.503208 L148.148663,294.384542 L149.456663,294.144542 L150.532663,294.025875 L151.720663,293.785875 L152.909996,293.547208 L153.984663,293.308542 L155.052663,293.069875 L156.123329,292.829875 L157.199329,292.471208 L158.267329,292.232542 L159.216663,291.873875 L160.292663,291.515208 L161.361996,291.037875 L162.429996,290.559208 L163.505996,290.080542 L164.575329,289.483208 L165.643329,289.004542 L166.600663,288.407208 L167.668662,287.809875 L168.617996,287.212542 L169.693996,286.613875 L170.643329,285.897875 L171.592662,285.299208 L172.548662,284.581875 L173.497996,283.864542 L174.453996,283.028542 L175.403329,282.311209 L174.685996,281.353875 L173.856662,280.517875 L173.139329,279.561875 L172.309996,278.605875 L171.592662,277.648542 L170.881996,276.812542 L170.044662,275.856542 L169.335329,274.900542 L168.617996,274.061875 L167.787329,273.105875 L167.071329,272.149875 L166.240663,271.193875 L165.523329,270.356542 L164.813996,269.400542 L163.977996,268.444542 L163.265996,267.488542 L162.429996,266.651209 L161.719329,265.695209 L160.763329,266.412542 L159.813996,267.248542 L158.857996,267.847209 L157.908663,268.564542 L156.959329,269.161876 L156.003329,269.760542 L155.052663,270.356542 L153.984663,270.955209 L153.028663,271.432542 L152.07933,271.911209 L151.12333,272.269875 L150.053996,272.628542 L148.985996,272.987209 L147.909996,273.225875 L146.721996,273.465875 L145.533996,273.704542 L144.344663,273.823209 L143.036663,273.943209 L141.721996,274.061875 L139.225997,274.061875 L138.037997,273.943209 L136.961997,273.823209 L135.773997,273.584542 L134.704663,273.344542 L133.628663,272.987209 L132.560663,272.628542 L131.49133,272.149875 L130.421997,271.672542 L129.465997,271.075209 L128.517997,270.476542 L127.560663,269.877875 L126.73133,269.161876 L125.893997,268.444542 L125.064664,267.727209 L124.34733,266.891209 L123.517997,266.053876 L122.800664,265.097876 L122.208664,264.260542 L121.61133,263.304542 L121.021997,262.228542 L120.42333,261.272542 L119.945997,260.196542 L119.58733,259.120542 L119.11533,258.044542 L118.756664,256.849876 L118.517997,255.660543 L118.27933,254.585876 L118.03933,253.269876 L117.920664,252.075209 L117.808664,250.880543 L117.808664,248.129876 L117.920664,246.935209 L118.03933,245.859209 L118.15933,244.663209 L118.397997,243.588543 L118.637997,242.51121 L118.876664,241.436543 L119.23533,240.360543 L119.58733,239.404543 L120.065997,238.209876 L120.54333,237.132543 L121.133997,236.056543 L121.73133,235.100543 L122.328664,234.144543 L123.03933,233.18721 L123.756664,232.35121 L124.585997,231.513876 L125.304664,230.677876 L126.132664,229.960543 L127.089997,229.24321 L128.03933,228.525877 L128.98733,227.928543 L129.94333,227.33121 L131.013997,226.852543 L132.081997,226.373877 L133.156663,225.896543 L134.345997,225.537877 L135.533997,225.17921 L136.729997,224.93921 L137.917997,224.700543 L139.105997,224.581877 L140.413996,224.461877 L143.148663,224.461877 L144.464663,224.581877 L145.772663,224.700543 L146.960663,224.820543 L148.148663,225.060543 L149.344663,225.29921 L150.532663,225.656543 L151.600663,225.896543 L152.67133,226.373877 L153.627329,226.852543 L154.695329,227.33121 L155.531329,227.808543 L156.481996,228.40721 L156.481996,239.284543 L139.105997,239.284543 L139.105997,256.729876 L178.377996,256.729876 L178.377996,217.88721 L177.548662,217.17121 L176.592662,216.453877 L175.761996,215.85521 L174.805996,215.137877 L173.856662,214.540544 L172.907329,213.82321 L171.951329,213.225877 L171.001996,212.62721 L169.925996,212.03121 L168.856662,211.432544 L167.787329,210.83521 L166.712662,210.364544 L165.643329,209.765877 L164.455329,209.288544 L163.387329,208.809877 L162.191329,208.332544 L161.123329,207.853877 L160.052663,207.49521 L158.977996,207.136544 L157.908663,206.776544 L156.720663,206.41921 L155.652663,206.05921 L154.456663,205.820544 L153.387329,205.581877 L152.19933,205.34321 L151.004663,205.104544 L149.81533,204.984544 L148.50733,204.864544 L147.31933,204.744544 L146.01133,204.625877 L144.81533,204.505877 L143.508663,204.38721 Z M521.145987,204.625877 L516.14732,204.625877 L514.957987,204.744544 L513.65132,204.744544 L512.461987,204.864544 L511.267321,204.984544 L509.959321,205.104544 L508.771321,205.34321 L507.583321,205.46321 L506.387321,205.701877 L505.197987,205.940544 L504.009987,206.180544 L502.821987,206.41921 L501.627321,206.776544 L500.557987,207.016544 L499.369988,207.37521 L498.180654,207.733877 L497.105988,208.212544 L495.917988,208.57121 L494.848654,208.928544 L493.659321,209.40721 L492.584654,209.885877 L491.515321,210.364544 L490.445988,210.953877 L489.371321,211.432544 L488.301988,212.03121 L487.352654,212.62721 L486.276655,213.225877 L485.327321,213.82321 L484.371321,214.420544 L483.421988,215.137877 L482.472655,215.85521 L481.516655,216.572543 L480.565988,217.289877 L479.729988,218.00721 L478.780655,218.84321 L479.497988,219.79921 L480.327321,220.636543 L481.044655,221.593877 L481.875321,222.549877 L482.592655,223.385877 L483.301988,224.341877 L484.139321,225.29921 L484.848655,226.13521 L485.685988,227.09121 L486.396655,227.928543 L487.232654,228.884543 L487.943321,229.841876 L488.660654,230.677876 L489.489988,231.633876 L490.207321,232.59121 L491.036654,233.42721 L491.753988,234.38321 L492.703321,233.665876 L493.772654,232.948543 L494.728654,232.23121 L495.797988,231.513876 L496.753988,230.916543 L497.823321,230.200543 L498.771321,229.601876 L499.848654,229.124543 L500.796654,228.525877 L501.865987,228.04721 L502.941987,227.569877 L504.009987,227.09121 L505.080654,226.732543 L506.155321,226.25521 L507.343321,225.896543 L508.532654,225.537877 L509.600654,225.17921 L510.796654,224.93921 L513.172654,224.461877 L514.480654,224.341877 L515.67532,224.10321 L516.864654,224.10321 L518.17132,223.984543 L520.78732,223.984543 L522.09532,224.10321 L523.29132,224.341877 L524.35932,224.581877 L525.428654,224.820543 L526.384654,225.17921 L527.21532,225.656543 L528.17132,226.373877 L528.880653,227.21121 L529.35932,228.168543 L529.71932,229.24321 L529.836653,230.43921 L529.836653,230.677876 L529.71932,232.112543 L529.240653,233.308543 L528.641987,234.144543 L527.812653,234.861876 L526.85532,235.57921 L525.905987,236.056543 L524.837987,236.53521 L523.641987,237.013876 L522.21532,237.609876 L521.384654,237.849876 L520.436654,238.088543 L519.360654,238.448543 L518.29132,238.68721 L517.10332,239.045876 L515.90732,239.284543 L514.600654,239.64321 L513.41132,239.881876 L512.103321,240.240543 L510.915321,240.47921 L509.719321,240.837876 L508.532654,241.077876 L507.343321,241.436543 L506.267321,241.793876 L505.080654,242.033876 L504.009987,242.392543 L502.941987,242.75121 L501.865987,243.109876 L500.557987,243.588543 L499.369988,244.067209 L498.180654,244.544543 L496.985988,245.023209 L495.917988,245.620543 L494.728654,246.217876 L493.772654,246.815209 L492.703321,247.412543 L491.753988,248.129876 L490.797988,248.727209 L489.968654,249.445876 L489.132654,250.281876 L488.301988,251.119209 L487.584654,251.956543 L486.875321,252.792543 L486.276655,253.628543 L485.685988,254.585876 L485.088655,255.660543 L484.609988,256.489876 L484.251321,257.447209 L483.900655,258.523209 L483.541988,259.479209 L483.301988,260.675209 L483.063321,261.751209 L482.943321,262.945876 L482.824655,264.141876 L482.704655,265.455209 L482.704655,268.205876 L482.824655,269.400542 L482.943321,270.476542 L483.063321,271.672542 L483.301988,272.747209 L483.541988,273.823209 L483.900655,274.900542 L484.139321,275.975209 L484.609988,277.051209 L485.088655,278.127209 L485.565988,279.201875 L486.157988,280.279209 L486.753988,281.353875 L487.464654,282.311209 L488.183321,283.267208 L489.012654,284.223208 L489.848654,285.059208 L490.679321,286.016542 L491.635321,286.853875 L492.464654,287.451208 L493.420654,288.168542 L494.371321,288.885875 L495.319321,289.483208 L496.395321,290.080542 L497.464654,290.559208 L498.532654,291.156542 L499.608654,291.633875 L500.796654,291.993875 L501.984654,292.471208 L503.060654,292.829875 L504.009987,293.069875 L505.080654,293.308542 L506.155321,293.547208 L507.343321,293.785875 L508.412654,294.025875 L509.600654,294.144542 L510.796654,294.264542 L511.984654,294.384542 L513.172654,294.503208 L518.29132,294.503208 L519.59932,294.384542 L520.90732,294.264542 L522.09532,294.264542 L523.409987,294.144542 L524.597987,293.905875 L525.905987,293.785875 L527.09532,293.547208 L528.17132,293.308542 L529.35932,293.069875 L530.54732,292.829875 L531.616653,292.591208 L532.81132,292.232542 L533.880653,291.873875 L534.949987,291.633875 L536.144653,291.156542 L537.213987,290.797875 L538.281987,290.320542 L539.35132,289.841875 L540.545986,289.363208 L541.61532,288.765875 L542.564653,288.287208 L543.640653,287.689875 L544.709986,287.092542 L545.65932,286.493875 L546.733986,285.776542 L547.684653,285.180542 L548.640653,284.461875 L549.589986,283.744542 L550.537986,283.028542 L549.828653,282.071209 L549.23132,281.115209 L548.520653,280.159209 L547.80332,279.201875 L547.093986,278.127209 L546.49532,277.171209 L545.777986,276.213875 L545.06732,275.257875 L544.47132,274.301875 L543.75932,273.344542 L543.04332,272.388542 L542.444653,271.432542 L541.73532,270.356542 L541.016653,269.400542 L540.30732,268.444542 L539.709987,267.488542 L538.99932,266.532542 L538.04332,267.248542 L536.97532,267.847209 L536.024653,268.444542 L535.068653,269.161876 L534.000653,269.639209 L533.04332,270.237875 L531.97532,270.716542 L531.025987,271.193875 L529.949987,271.672542 L529.000653,272.149875 L527.932653,272.508542 L526.976653,272.987209 L525.66732,273.344542 L524.47932,273.704542 L523.29132,274.061875 L522.09532,274.301875 L520.90732,274.540542 L519.71932,274.780542 L518.53132,274.900542 L517.33532,275.019209 L516.26732,275.139209 L513.65132,275.139209 L512.343321,274.900542 L511.147321,274.660542 L510.079321,274.421875 L509.129987,273.943209 L508.292654,273.465875 L507.223321,272.508542 L506.505987,271.432542 L506.036654,270.356542 L505.915321,269.161876 L505.915321,268.921876 L506.036654,267.368542 L506.625987,266.053876 L507.104654,265.336542 L507.933987,264.499209 L509.009987,263.901876 L509.959321,263.304542 L511.147321,262.825876 L512.461987,262.347209 L513.889987,261.869876 L514.83932,261.631209 L515.788654,261.272542 L516.864654,261.033876 L517.932654,260.675209 L519.120654,260.435209 L520.436654,260.076542 L521.744654,259.719209 L523.052654,259.359209 L524.35932,259.120542 L525.54732,258.761876 L526.85532,258.403209 L528.05132,258.164542 L529.240653,257.805876 L530.428653,257.447209 L531.496653,257.088542 L532.692653,256.729876 L533.761987,256.371209 L534.829987,256.012543 L536.144653,255.541876 L537.332653,254.943209 L538.520653,254.465876 L539.709987,253.868543 L540.785986,253.269876 L541.85532,252.672543 L542.80332,252.075209 L543.75932,251.357876 L544.709986,250.760543 L545.65932,249.923209 L546.61532,249.087209 L547.444653,248.129876 L548.280655,247.293876 L548.99132,246.336543 L549.708653,245.261876 L550.29932,244.305876 L550.897986,243.228543 L551.37532,242.272543 L551.733986,241.197876 L552.085986,240.121876 L552.324653,239.045876 L552.56332,237.849876 L552.801986,236.653876 L552.921986,235.45921 L553.041986,234.144543 L553.041986,231.27521 L552.921986,229.960543 L552.801986,228.764543 L552.68332,227.45121 L552.44332,226.25521 L552.085986,225.060543 L551.853986,223.984543 L551.493986,222.788543 L551.016653,221.712543 L550.537986,220.75521 L550.06732,219.680543 L549.469986,218.724543 L548.872653,217.76721 L548.161986,216.81121 L547.56332,215.85521 L546.853986,215.01921 L546.016653,214.181877 L545.305986,213.464544 L544.35132,212.62721 L543.520653,211.909877 L542.564653,211.192544 L541.61532,210.60321 L540.665986,209.885877 L539.589987,209.288544 L538.520653,208.809877 L537.452653,208.212544 L536.256653,207.733877 L535.068653,207.25521 L533.880653,206.897877 L532.692653,206.537877 L531.616653,206.180544 L530.428653,205.940544 L529.35932,205.701877 L528.29132,205.46321 L527.09532,205.22321 L525.905987,205.104544 L524.837987,204.984544 L523.641987,204.864544 L522.33532,204.744544 L521.145987,204.625877 Z M211.228661,206.05921 L187.195329,206.05921 L187.665995,207.136544 L188.144662,208.212544 L188.621995,209.288544 L189.093995,210.48321 L189.452662,211.552544 L189.931329,212.62721 L190.408662,213.70321 L190.879329,214.77921 L191.357995,215.85521 L191.836662,217.05121 L192.307329,218.12721 L192.785995,219.201877 L193.143329,220.277877 L193.621995,221.353877 L194.092662,222.429877 L194.571328,223.624543 L195.048662,224.700543 L195.520662,225.777877 L195.999328,226.852543 L196.476662,227.928543 L196.835328,229.004543 L197.305995,230.200543 L197.784662,231.27521 L198.263328,232.35121 L198.733995,233.42721 L199.691328,235.57921 L200.161995,236.77521 L200.520662,237.849876 L200.999328,238.925876 L201.476662,240.001876 L201.948662,241.077876 L202.425995,242.153876 L202.903328,243.348543 L203.375328,244.424543 L203.852662,245.500543 L204.211328,246.576543 L204.689995,247.651209 L205.160662,248.727209 L205.639328,249.923209 L206.117995,250.999209 L206.588662,252.075209 L207.065995,253.151209 L207.544661,254.225876 L207.903328,255.303209 L208.375328,256.371209 L208.852661,257.567209 L209.329995,258.641876 L209.801995,259.719209 L210.279328,260.795209 L210.757995,261.869876 L211.228661,262.945876 L211.587328,264.141876 L212.065995,265.216542 L212.543328,266.292542 L213.015328,267.368542 L213.971328,269.520542 L214.443328,270.716542 L214.920661,271.791209 L215.279328,272.867209 L215.756661,273.943209 L216.228661,275.019209 L216.705995,276.095209 L217.184661,277.289875 L217.655328,278.365875 L218.133995,279.441875 L218.612661,280.517875 L218.963328,281.592542 L219.441995,282.669875 L219.920661,283.864542 L220.399328,284.940542 L220.869994,286.016542 L221.348661,287.092542 L221.825994,288.168542 L222.296661,289.243208 L222.656661,290.439208 L223.133994,291.515208 L223.612661,292.591208 L224.083328,293.667208 L246.099327,293.667208 L246.576661,292.591208 L247.055327,291.515208 L247.527327,290.439208 L248.00466,289.243208 L248.363327,288.168542 L248.833994,287.092542 L249.31266,286.016542 L249.789994,284.940542 L250.26866,283.864542 L250.739327,282.669875 L251.217994,281.592542 L251.69666,280.517875 L252.047327,279.441875 L252.525994,278.365875 L253.00466,277.289875 L253.483327,276.095209 L253.953994,275.019209 L254.909994,272.867209 L255.38066,271.791209 L255.739327,270.716542 L256.21666,269.520542 L256.68866,268.444542 L257.167327,267.368542 L257.64466,266.292542 L258.123327,265.216542 L258.593994,264.141876 L259.071327,262.945876 L259.431327,261.869876 L259.901994,260.795209 L260.379327,259.719209 L260.857993,258.641876 L261.33666,257.567209 L261.807327,256.371209 L262.285993,255.303209 L262.763327,254.225876 L263.115327,253.151209 L263.59266,252.075209 L264.071327,250.999209 L264.543327,249.923209 L265.02066,248.727209 L265.499327,247.651209 L265.977993,246.576543 L266.44866,245.500543 L266.807327,244.424543 L267.28466,243.348543 L267.75666,242.153876 L268.233993,241.077876 L268.71266,240.001876 L269.189993,238.925876 L269.661993,237.849876 L270.14066,236.77521 L270.497993,235.57921 L270.969993,234.50321 L271.925993,232.35121 L272.39666,231.27521 L272.875327,230.200543 L273.353993,229.004543 L273.83266,227.928543 L274.183326,226.852543 L274.661993,225.777877 L275.14066,224.700543 L275.611326,223.624543 L276.08866,222.429877 L276.567326,221.353877 L277.04466,220.277877 L277.515326,219.201877 L277.875326,218.12721 L278.353993,217.05121 L278.82466,215.85521 L279.301993,214.77921 L279.779326,213.70321 L280.251326,212.62721 L280.72866,211.552544 L281.207326,210.48321 L281.567326,209.288544 L282.03666,208.212544 L282.515326,207.136544 L282.99266,206.05921 L258.475327,206.05921 L258.003327,207.136544 L257.64466,208.212544 L257.167327,209.288544 L256.68866,210.48321 L256.33666,211.552544 L255.859327,212.62721 L255.38066,213.70321 L255.02866,214.77921 L254.551327,215.85521 L254.07266,216.93121 L253.715327,218.00721 L253.243327,219.201877 L252.76466,220.277877 L252.405994,221.353877 L251.927327,222.429877 L217.775328,222.429877 L217.304661,221.353877 L216.945995,220.277877 L216.467328,219.201877 L215.989995,218.00721 L215.637995,216.93121 L215.160661,215.85521 L214.681995,214.77921 L214.323328,213.70321 L213.852661,212.62721 L213.373995,211.552544 L213.015328,210.48321 L212.543328,209.288544 L212.065995,208.212544 L211.707328,207.136544 L211.228661,206.05921 Z M470.652655,206.05921 L401.272657,206.05921 L401.272657,293.069875 L470.055322,293.069875 L470.055322,273.344542 L423.997989,273.344542 L423.997989,259.120542 L465.413988,259.120542 L465.413988,240.59921 L423.997989,240.59921 L423.997989,225.777877 L470.652655,225.777877 L470.652655,206.05921 Z M315.275325,206.05921 L292.661993,206.05921 L292.661993,293.069875 L317.061992,293.069875 L317.652659,292.112542 L318.249992,291.037875 L318.959325,290.088542 L319.557992,289.012542 L320.155325,288.056542 L320.745992,286.979208 L321.343325,286.031208 L322.055325,284.953875 L322.651325,283.997875 L323.249992,283.041875 L323.840659,281.973875 L324.437992,281.016542 L325.148659,279.941875 L325.745992,278.984542 L326.343325,277.916542 L326.933992,276.960542 L327.651325,276.004542 L328.249992,274.933875 L328.839325,273.979209 L329.436658,272.903209 L330.028658,271.945875 L330.745992,270.877875 L331.343325,269.920542 L331.932658,268.845876 L332.531325,267.896542 L333.121992,266.940542 L333.839325,265.864542 L334.436658,264.907209 L335.027325,263.831209 L335.624658,262.881876 L336.215325,261.805876 L336.933992,260.849876 L337.531325,259.781876 L338.121992,258.824542 L338.719325,259.781876 L339.316658,260.849876 L340.027325,261.805876 L340.623325,262.881876 L341.215325,263.831209 L341.812658,264.907209 L342.523325,265.864542 L343.120658,266.940542 L343.719325,267.896542 L344.308658,268.845876 L345.025991,269.920542 L345.616658,270.877875 L346.215325,271.945875 L346.811325,272.903209 L347.521991,273.979209 L348.119325,274.933875 L348.717991,276.004542 L349.307325,276.960542 L349.907325,277.916542 L350.616658,278.984542 L351.213991,279.941875 L351.811325,281.016542 L352.403325,281.973875 L353.119325,283.041875 L353.711324,283.997875 L354.307324,284.953875 L354.905991,286.031208 L355.615324,286.979208 L356.213991,288.056542 L356.803324,289.012542 L357.401991,290.088542 L358.119324,291.037875 L358.709991,292.112542 L359.307324,293.069875 L383.699324,293.069875 L383.699324,206.05921 L360.733991,206.05921 L360.733991,257.511209 L360.137991,256.555209 L359.427324,255.471209 L358.828658,254.515209 L358.119324,253.557876 L357.521991,252.483209 L356.803324,251.525876 L356.213991,250.569876 L355.615324,249.487209 L354.905991,248.531209 L354.307324,247.575209 L353.591324,246.617876 L353.000658,245.535209 L352.283325,244.579209 L351.692658,243.623209 L351.093991,242.54721 L350.376658,241.584543 L349.785991,240.62721 L349.068658,239.552543 L348.479325,238.59521 L347.761991,237.63921 L347.171325,236.556543 L346.572658,235.59921 L345.856658,234.64321 L345.265991,233.56721 L344.548658,232.604543 L343.957991,231.648543 L343.240658,230.69121 L342.641991,229.616543 L342.051325,228.653877 L341.335325,227.696543 L340.744658,226.620543 L340.027325,225.664543 L339.429992,224.708543 L338.719325,223.624543 L338.121992,222.668543 L337.649992,222.668543 L336.933992,223.744543 L336.335325,224.708543 L335.624658,225.784543 L335.027325,226.740543 L334.316658,227.81521 L333.719325,228.77921 L333.009992,229.85521 L332.411325,230.812543 L331.693992,231.88721 L331.103325,232.84321 L330.385992,233.92721 L329.796658,234.88321 L329.079325,235.95921 L328.480658,236.91521 L327.771325,237.997876 L327.172658,238.953876 L326.463325,240.029876 L325.745992,240.985876 L325.148659,242.068543 L324.437992,243.024543 L323.840659,244.100543 L323.129992,245.056543 L322.532659,246.140543 L321.821992,247.096543 L321.224659,248.172543 L320.507325,249.128543 L319.916659,250.204543 L319.199325,251.168543 L318.608659,252.243209 L317.891325,253.200543 L317.293992,254.276543 L316.584659,255.231209 L315.984659,256.315209 L315.275325,257.271209 L315.275325,206.05921 Z M244.909994,240.837876 L244.432661,241.913876 L244.073994,242.996543 L243.603327,244.192543 L243.124661,245.268543 L242.765994,246.351209 L242.295327,247.427209 L241.817994,248.623209 L241.457994,249.705876 L240.979327,250.781876 L240.509994,251.856543 L240.149994,252.939209 L239.671327,254.135209 L239.320661,255.211209 L238.841994,256.293876 L238.363327,257.369876 L238.005994,258.445876 L237.533994,259.647209 L237.056661,260.724542 L236.697994,261.799209 L236.219327,262.881876 L235.748661,264.077876 L235.389994,265.160542 L234.911327,266.236542 L234.440661,265.160542 L234.083327,264.077876 L233.604661,262.881876 L233.125994,261.799209 L232.773994,260.724542 L232.296661,259.647209 L231.817994,258.445876 L231.347328,257.369876 L230.987328,256.293876 L230.509994,255.211209 L230.031328,254.135209 L229.679328,252.939209 L229.201994,251.856543 L228.723328,250.781876 L228.365994,249.705876 L227.893994,248.623209 L227.415328,247.427209 L226.937994,246.351209 L226.587328,245.268543 L226.108661,244.192543 L225.629994,242.996543 L225.271328,241.913876 L224.800661,240.837876 L244.909994,240.837876 Z M321.562259,60.6884141 L198.804928,102.893746 L449.543589,102.893746 L321.562259,60.6884141 Z" id="Combined-Shape" fill="#FEFEFE"></path>
                    </g>
                </g>
            </g>
        </g>
    </g>
</svg>