<?xml version="1.0" encoding="UTF-8"?>
<svg width="2000px" height="1603px" viewBox="0 0 2000 1603" version="1.1" xmlns="http://www.w3.org/2000/svg" xmlns:xlink="http://www.w3.org/1999/xlink">
    <title>humble-bundle-logo</title>
    <g id="Page-1" stroke="none" stroke-width="1" fill="none" fill-rule="evenodd">
        <g id="humble-bundle-logo" transform="translate(0.000000, 0.950377)" fill="#FEFEFE" fill-rule="nonzero">
            <path d="M1345.77213,901.200873 C1353.71179,905.170703 1363.63636,914.698293 1375.54585,929.982136 C1387.45534,945.265979 1397.97539,962.733227 1407.30449,982.582374 C1428.54307,1032.80071 1439.06312,1103.06669 1439.06312,1192.98333 C1439.06312,1330.53791 1392.02064,1433.158 1298.13418,1500.6451 C1204.24772,1568.1322 1067.88408,1601.87574 889.241763,1601.87574 C694.720127,1601.87574 545.851528,1564.16237 442.635967,1488.73561 C332.870187,1406.75863 277.888051,1263.05081 277.888051,1058.00913 C277.888051,901.796348 324.930528,777.540691 418.816991,684.845177 C450.575625,653.086542 478.959905,627.878126 504.168321,609.41842 C529.376737,590.958714 562.32632,571.109567 603.414053,549.870981 C655.021834,524.662565 700.277888,504.614927 739.380707,489.331084 C778.483525,474.047241 799.920603,465.909091 803.890433,464.519651 C978.562922,397.032553 1091.10758,318.231441 1141.32592,228.314807 C1158.59468,197.945613 1167.12981,166.38547 1167.12981,134.031362 C1167.12981,101.677253 1158.59468,77.0643112 1141.32592,60.5895197 C1124.05717,44.1147281 1121.47678,34.3886463 1133.38626,31.8082572 C1157.20524,35.7780865 1178.04684,51.6574037 1195.91108,79.4462088 C1213.77531,107.235014 1222.70742,132.44343 1222.70742,154.872965 C1222.70742,177.302501 1222.11195,196.15919 1220.72251,211.443033 C1219.33307,226.726876 1216.3557,245.186582 1211.79039,267.020643 C1207.22509,288.854704 1200.27789,310.688765 1190.94879,332.522827 C1181.61969,354.356888 1169.7102,378.572846 1155.22033,404.972211 C1126.04208,457.969432 1076.41921,522.082175 1006.35173,597.508932 C940.254069,667.576419 898.570861,715.214371 881.302104,740.422787 L825.724494,815.849543 L786.026201,883.336642 L762.207225,948.838825 L750.297737,1014.34101 L760.22231,1069.91862 C772.131798,1107.03652 806.470822,1137.40572 863.437872,1161.22469 C848.947995,1149.3152 835.649067,1128.87058 823.739579,1099.69234 C811.830091,1070.51409 805.875347,1036.17507 805.875347,996.476776 C805.875347,956.778484 833.26717,905.567686 888.249305,842.645891 C943.231441,779.724097 984.517666,742.407701 1012.30647,731.490671 L1345.77213,901.200873 Z M903.136165,135.023819 C903.136165,193.181818 930.329496,248.759428 984.517666,301.756649 L887.256848,355.349345 C860.857483,295.801906 847.558555,230.895197 847.558555,160.827709 C847.558555,126.488686 854.108773,101.28027 867.407701,85.4009528 C887.256848,60.1925367 904.724097,44.1147281 920.00794,36.7705439 C935.291782,29.4263597 942.834458,29.2278682 942.834458,35.7780865 C942.834458,42.3283049 938.864629,49.6724891 930.92497,57.6121477 C913.656213,74.8809051 904.525605,100.684796 903.136165,135.023819 Z M833.664152,387.107979 L649.06709,458.564907 L33.743549,137.008734 C11.3140135,122.518857 0,104.853116 0,84.4084954 C0,63.9638746 3.57284637,46.6951171 10.9170306,32.8007146 C18.2612148,18.906312 29.3767368,9.37872171 44.6605796,4.01945216 C59.9444224,-1.33981739 78.0071457,-1.33981739 99.2457324,4.01945216 L833.664152,387.107979 Z M1141.32592,547.886066 L1974.99008,978.612545 C2002.77888,1005.01191 2007.34418,1036.77054 1988.88448,1073.88845 C1982.33426,1088.37832 1972.40969,1099.09686 1959.11076,1105.64708 C1945.81183,1112.1973 1929.33704,1114.97618 1909.48789,1113.58674 L1046.05002,664.99603 L1141.32592,547.886066 Z" id="Shape"></path>
        </g>
    </g>
</svg>